<?xml version="1.0" encoding="UTF-8"?>
<svg width="512px" height="512px" viewBox="0 0 512 512" version="1.1" xmlns="http://www.w3.org/2000/svg" xmlns:xlink="http://www.w3.org/1999/xlink">
    <!-- Generator: Sketch 52.6 (67491) - http://www.bohemiancoding.com/sketch -->
    <title>Slice</title>
    <desc>Created with Sketch.</desc>
    <defs>
        <linearGradient x1="50%" y1="0%" x2="50%" y2="100%" id="linearGradient-1">
            <stop stop-color="#0E0E0E" offset="0%"></stop>
            <stop stop-color="#000000" offset="100%"></stop>
        </linearGradient>
        <rect id="path-2" x="0" y="0" width="473" height="473" rx="113"></rect>
        <filter x="-5.3%" y="-4.9%" width="110.6%" height="110.6%" filterUnits="objectBoundingBox" id="filter-3">
            <feOffset dx="0" dy="2" in="SourceAlpha" result="shadowOffsetOuter1"></feOffset>
            <feGaussianBlur stdDeviation="8" in="shadowOffsetOuter1" result="shadowBlurOuter1"></feGaussianBlur>
            <feColorMatrix values="0 0 0 0 0   0 0 0 0 0   0 0 0 0 0  0 0 0 0.5 0" type="matrix" in="shadowBlurOuter1"></feColorMatrix>
        </filter>
        <path d="M251.972757,432.574439 C257.639637,430.808743 262.230847,428.305715 267.42731,424.149852 C279.076043,414.832857 287.14663,403.955995 317.276957,356.968284 C339.929312,321.64262 348.43007,305.853348 354.751296,287.364632 C357.661778,278.851541 360.999708,264.207763 361,259.950684 C361,258.243893 360.817919,257.881243 360.035445,258.030398 C358.637123,258.295617 355.708365,262.941644 354.65136,266.571535 C353.518431,270.461597 349.323853,280.994055 345.226002,290.237879 C339.955949,302.126608 330.737948,317.704133 316.646332,338.535659 C289.776845,378.257086 290.573997,377.153902 289.131054,376.601534 C288.368218,376.309338 288.361704,376.026457 289.072726,374.016495 C290.05614,371.233983 294.430563,363.772934 300.197476,355.042467 C302.596128,351.411024 306.128875,345.488397 308.047971,341.881602 C309.967068,338.274322 312.74495,333.476326 314.221043,331.218816 C316.088519,328.363134 316.90492,326.550663 316.90492,325.259798 C316.90492,324.239198 316.63486,323.404435 316.30482,323.404435 C315.974779,323.404435 314.428789,324.518681 312.869384,325.880485 C310.300316,328.123729 308.039708,329.21653 308.924936,327.786505 C309.119072,327.472862 313.261447,322.706793 318.130202,317.19456 C332.040029,301.447696 336.546274,294.85654 339.27798,286.264165 C340.83408,281.369902 341.73739,272.783641 340.696231,272.783641 C339.415538,272.783641 335.157187,279.146454 327.934499,291.852285 C323.845008,299.045883 319.607267,306.055294 318.517307,307.428063 C307.404222,321.425826 286.662894,331.160494 263.990124,333.020224 C261.716489,333.206741 256.526443,333.992497 252.456881,334.765541 C245.195307,336.146074 244.866822,336.159854 234.818616,335.526455 C223.05799,334.784756 217.474034,333.815297 215.772016,332.219135 C214.763034,331.272675 213.844559,331.107605 209.584945,331.107605 C203.486144,331.107605 197.754422,330.066626 189.500782,327.46015 C175.181977,322.937852 163.447988,316.944772 154.629827,309.649861 C147.858307,304.048058 145.428936,300.571107 137.540528,285.189512 C132.226145,274.826588 129.323245,270.032474 128.363163,270.032474 C126.804729,270.032474 130.545611,282.316264 134.189862,289.166622 C139.903502,299.905392 145.562605,306.919655 159.946349,321.08967 C180.473904,341.311572 184.682578,344.313595 199.347172,349.193011 C211.71412,353.308213 218.451032,354.21605 236.626403,354.216632 C248.114538,354.216632 248.122996,354.216632 249.776116,355.607063 C251.110082,356.727326 251.792426,356.928691 253.300697,356.64581 C254.510813,356.419118 255.170992,356.510533 255.170992,356.903945 C255.170992,357.238452 253.646389,359.556516 251.782899,362.055177 C247.089128,368.347538 246.101728,370.67715 246.125545,375.400919 C246.1411,378.557531 246.536857,380.245593 248.315479,384.75479 C250.479651,390.241014 250.485679,390.278473 250.428614,397.68508 C250.375147,404.641603 250.211147,405.724408 247.849631,414.742122 C244.251751,428.481266 243.8174,434 246.333972,434 C246.918809,434 249.456477,433.358449 251.973243,432.574439 L251.972757,432.574439 Z M222.624774,429.265818 C222.559196,427.293895 221.480292,421.584949 220.227949,416.579357 C216.51056,401.721739 215.730672,395.426469 216.953946,390.15228 C217.264315,388.814057 218.756556,385.070419 220.270134,381.833236 C222.751036,376.526943 223.01971,375.571626 222.99896,372.131306 C222.972533,367.744044 221.838915,364.190108 219.360167,360.72178 C217.312177,357.856801 215.454462,356.906931 208.261638,355.049802 C205.279701,354.279808 199.951444,352.436395 196.420903,350.953124 C192.89046,349.470436 188.178832,347.691036 185.950552,346.998771 C181.076348,345.485829 179.861688,345.873598 180.270718,348.811345 C180.545461,350.785506 180.533422,355.613458 180.235483,362.799547 C180.079466,366.567992 180.312806,368.01488 181.836172,372.706053 C183.634671,378.246807 183.997503,380.934634 183.130602,382.293773 C181.843708,384.312002 178.654173,379.892735 175.032606,371.073355 C172.291253,364.398099 163.876329,348.224438 157.521435,337.41719 C152.498164,328.874784 143.463089,314.564382 131.23427,295.78179 C124.346236,285.202281 120.25153,277.489503 116.685186,268.376144 C112.322686,257.228601 107.858981,250 105.337754,250 C103.338116,250 103.534654,252.306187 106.235486,260.534272 C115.271638,288.061715 128.788898,314.655438 156.393592,359.214285 C167.328079,376.864515 170.948079,382.186178 175.395438,387.147213 C177.260984,389.227801 182.671067,396.763525 187.417736,403.8928 C194.465016,414.47727 197.020599,417.82701 201.34933,422.153664 C204.264906,425.067674 207.838317,428.132862 209.290135,428.965214 C212.950754,431.06341 219.083565,433.157228 221.079288,432.99068 L222.744185,432.851177 L222.624481,429.265818 L222.624774,429.265818 Z M236.997084,395.998582 C236.954853,394.012318 235.993691,392.471587 235.233798,393.171587 C234.973406,393.411118 234.924081,394.559296 235.118341,395.860496 C235.384645,397.643793 235.626794,398.09905 236.246989,397.983057 C236.836524,397.872744 237.02656,397.370343 236.997084,395.998582 Z M250.999996,329.41145 C250.999996,329.050942 250.501247,328.046983 249.896136,327.181117 C248.399004,325.038898 238.346685,314.87324 235.98695,313.11513 C234.160892,311.754366 234.019404,311.730764 232.639653,312.549981 C230.971023,313.540798 231.207164,313.292561 224.005754,321.633562 C220.232912,326.003984 218.6672,328.197572 219.058407,328.565484 C219.629573,329.102867 232.840373,329.834433 244.727506,329.987151 C249.423855,330.047312 251.002751,329.902924 250.999996,329.41145 Z M282.29785,309.742325 C298.060015,305.915149 306.452221,300.711399 315.412439,289.210181 C319.608688,283.823478 323.905295,276.961268 323.905295,275.645418 C323.905295,274.605896 323.347396,274.505306 312.053573,273.498339 C300.682731,272.484257 295.509358,270.753865 295.509358,267.963579 C295.509358,266.627259 295.586182,266.602892 299.369039,266.771516 C301.491816,266.866062 306.246546,267.301462 309.935173,267.738617 C318.826736,268.793052 322.203495,268.744414 332.116527,267.418622 C341.05185,266.223829 344.485401,265.156041 348.934586,262.188359 C353.14406,259.380334 362.501819,250.842997 365.073287,247.464087 C367.934449,243.704946 368.696369,242.161404 370.222154,237.032803 C371.327546,233.317913 371.483528,231.332245 371.727615,217.875771 L372,202.863475 L368.767067,202.503711 C366.989027,202.305944 362.587687,201.662639 358.986387,201.0746 C351.028577,199.775319 349.232158,199.755435 345.684635,200.929759 C343.35842,201.700165 338.793221,201.908557 316.46172,202.263934 C301.905401,202.495426 287.886657,202.856847 285.308965,203.06748 C278.805951,203.597427 276.558798,202.890084 272.539244,199.046923 C270.768108,197.354154 269.31905,195.675713 269.31905,195.318192 C269.31905,193.87407 272.73675,189.677286 275.220697,188.071851 C281.845365,183.788806 291.440403,178.31974 294.167659,177.271348 C301.572627,174.425212 314.572334,173.73941 323.905295,175.702367 C333.302827,177.678677 342.031114,182.701718 346.235823,188.55316 C348.945186,192.323413 349.438221,192.63951 354.16903,193.637022 C356.250088,194.075834 358.790145,194.920318 359.813656,195.5144 C362.030663,196.800425 368.691604,198.899937 370.554735,198.899937 C371.864051,198.899937 371.875039,198.850228 371.875039,193.07608 C371.875039,186.451503 371.04106,164.880421 370.198621,149.714024 C368.485152,118.866682 363.820762,95.2458955 356.63732,81.0372423 C349.165155,66.2577049 332.748235,57.5036915 300.471805,51.0885782 C276.244013,46.273247 252.171912,44.2693527 230.171241,45.237039 C177.475161,47.5538134 143.318486,55.5224102 127.143902,69.2718802 C118.531629,76.5933709 113.410204,87.4910513 109.208703,107.436229 C103.722685,133.47935 101.783314,154.335779 101.320327,192.268147 L101,218.518979 L102.784653,223.769223 C107.16917,236.668653 114.943476,249.937789 121.892829,256.383898 C125.720614,259.934063 131.809264,263.442901 135.291632,264.104433 C139.575694,264.918993 152.611868,264.771423 161.524922,263.80822 C165.770572,263.348939 171.787455,262.821137 174.895816,262.634871 C180.393212,262.305518 180.547444,262.328132 180.547444,263.468341 C180.547444,265.160525 178.750052,266.063491 172.828178,267.347371 C160.805887,269.953633 158.219152,270.305111 151.482554,270.248773 C143.400367,270.180544 143.206459,270.345269 145.831218,275.020925 C150.352753,283.076368 156.187398,289.760109 162.374169,293.971319 C169.455017,298.790354 186.294859,306.001411 193.341671,307.231585 C197.995266,308.044001 201.718318,307.066373 205.459748,304.05054 C209.227241,301.013167 210.545017,299.102649 210.480057,296.772131 C210.434352,295.125759 209.94754,294.344923 207.641456,292.218313 C206.110808,290.806844 204.711735,289.065925 204.532608,288.349712 C204.353384,287.6335 204.58901,284.685117 205.056568,281.797458 C206.506112,272.841291 205.865944,266.636129 203.528643,266.988095 C202.92961,267.078742 202.16594,267.649627 201.831706,268.25755 C201.497473,268.865473 200.426117,270.504048 199.45084,271.89846 C196.675253,275.866968 195.434593,279.277458 195.434593,282.938155 C195.434593,285.964514 195.334624,286.223103 194.039992,286.548654 C193.024358,286.803929 192.046455,286.483349 190.440929,285.36819 C186.005067,282.28715 183.300956,276.862921 183.307374,271.058947 C183.317099,264.863727 185.675696,261.301378 192.124933,257.758328 C196.757523,255.212791 199.934443,251.872577 201.22217,248.193556 C202.336897,245.008612 205.134267,229.251447 206.24491,219.900622 C206.753991,215.615335 207.09474,207.320115 207.142585,198.05214 L207.219409,183.111776 L202.843256,174.627463 C198.92513,167.031301 198.097374,165.818282 194.936792,163.040667 C192.995282,161.334057 188.529079,157.368181 185.012091,154.227489 C174.05678,144.443408 169.103668,141.443074 161.058629,139.71658 C153.272458,138.045937 149.670186,136.292932 149.670186,134.174022 C149.670186,132.136403 153.020203,131.290262 159.594887,131.666693 C172.698939,132.41663 180.527995,136.599086 198.87923,152.653537 C212.084611,164.206121 215.119066,167.933195 218.983221,177.346498 C219.919016,179.626234 221.194199,183.605269 221.817155,186.188917 C224.031828,195.375699 224.206579,199.773662 223.582164,230.602192 C223.258822,246.564338 222.88219,259.950633 222.74517,260.348605 C221.743054,263.263263 218.572941,286.950427 218.545032,291.733593 C218.513913,297.147393 218.579068,297.473431 219.984949,298.944552 C223.613088,302.740733 232.609093,305.019884 239.64443,303.925583 C243.99209,303.249723 245.967636,302.383699 249.262418,299.7095 C250.513386,298.694248 252.215964,297.553552 253.046053,297.174489 C254.731418,296.404571 253.799221,295.611551 261.695669,304.537405 C267.584479,311.194635 271.864845,312.276167 282.297655,309.742325 L282.29785,309.742325 Z M275.325083,276.835722 C274.527127,272.944967 272.041841,267.45732 270.31723,265.778317 C269.610694,265.090372 267.794476,264.189578 266.281274,263.775724 C264.767977,263.36187 263.184992,262.726821 262.7633,262.364116 C260.849012,260.71821 262.856031,256.438932 265.250085,257.061364 C267.438445,257.630414 272.829305,261.537572 274.5719,263.817556 C278.756039,269.292003 280.190561,275.535245 277.942628,278.486578 C277.308685,279.319237 276.606364,280 276.38203,280 C276.157602,280 275.681957,278.576356 275.325083,276.835722 Z M114,212.617467 C114,211.827069 114.658604,209.523077 115.46349,207.497615 C116.9213,203.828872 116.923154,203.8049 115.943805,201.274742 C115.403182,199.878258 114.843236,198.06275 114.69959,197.24052 C114.417861,195.627303 113.927396,195.87184 121.322893,193.943348 C122.702459,193.584058 123.897979,192.717323 124.919308,191.335772 C127.593151,187.720475 131.897744,183.706394 135.044193,181.893735 C142.902264,177.367099 154.139135,175.304303 166.010409,176.208471 C173.023195,176.742051 177.238205,178.008849 184.546089,181.777902 C196.981603,188.191177 202.111477,191.896173 202.900943,195.034087 C203.666306,198.076112 199.893749,202.311446 195.134407,203.753615 C191.431136,204.875596 182.304258,205.595256 159.476964,206.565053 C148.123575,207.047545 136.9192,207.771724 134.57832,208.174439 C126.162743,209.623289 117.60635,211.890537 116.454177,212.977346 C114.885491,214.456358 114,214.326574 114,212.617467 Z M257.381262,179.592925 C256.660043,178.858408 257.03128,173.21931 257.915997,171.46957 C261.702326,163.980178 268.921924,155.91175 280.73861,145.964144 C294.399074,134.464477 304.22541,130 315.877635,130 C320.72324,130 323,130.803837 323,132.514806 C323,134.800307 319.589236,136.569532 310.148083,139.179799 C303.436868,141.035674 301.856802,141.845581 296.477039,146.188455 C284.912333,155.523734 266.689886,172.639784 261.789173,178.769115 C260.87291,179.914852 258.190386,180.416148 257.381262,179.592925 Z M207.215224,156.813146 C205.899275,156.137448 201.837266,152.773784 198.188345,149.338132 C190.286856,141.897803 187.052181,139.614732 178.991136,135.785714 C167.480807,130.31919 160.224978,128.656784 149.701732,129.076503 C138.749945,129.513856 133.530674,131.885386 125.011148,140.296436 C122.155949,143.115687 119.630003,145.421817 119.398106,145.421817 C117.874309,145.421817 120.929436,139.363598 125.082619,134.149177 C130.71633,127.076345 139.967186,120.942843 148.274132,118.772356 C154.423792,117.166048 162.726005,116.589854 169.506934,117.299075 C185.546059,118.976208 198.978108,125.014663 210.044539,135.523147 C216.823632,141.959811 219.04563,146.984719 217.560274,152.518871 C216.162229,157.726704 212.198928,159.372058 207.215224,156.813146 Z M258.286031,157.022511 C255.089476,154.785225 253.969913,147.915221 256.073284,143.443931 C257.500298,140.41071 265.888079,132.247651 271.165588,128.755638 C288.798769,117.089656 307.306478,113.273149 323.629171,117.93705 C332.871962,120.578386 342.857489,127.567819 348.940441,135.65364 C351.70036,139.321851 354.26288,144.003421 353.978327,144.856222 C353.879483,145.152429 351.232708,143.046446 348.096736,140.17639 C338.241166,131.15551 331.380983,128.581564 318.485966,129.067678 C303.132782,129.645802 292.517278,134.582933 273.56298,149.95922 C263.393388,158.209944 261.339295,159.159099 258.286031,157.022511 Z" id="path-4"></path>
        <filter x="-14.2%" y="-9.4%" width="128.4%" height="119.8%" filterUnits="objectBoundingBox" id="filter-5">
            <feOffset dx="0" dy="2" in="SourceAlpha" result="shadowOffsetOuter1"></feOffset>
            <feGaussianBlur stdDeviation="12.5" in="shadowOffsetOuter1" result="shadowBlurOuter1"></feGaussianBlur>
            <feColorMatrix values="0 0 0 0 0.243090986   0 0 0 0 0.243090986   0 0 0 0 0.243090986  0 0 0 1 0" type="matrix" in="shadowBlurOuter1"></feColorMatrix>
        </filter>
    </defs>
    <g id="Page-1" stroke="none" stroke-width="1" fill="none" fill-rule="evenodd">
        <g id="favicon" transform="translate(20.000000, 20.000000)">
            <g id="Rectangle">
                <use fill="black" fill-opacity="1" filter="url(#filter-3)" xlink:href="#path-2"></use>
                <use fill="url(#linearGradient-1)" fill-rule="evenodd" xlink:href="#path-2"></use>
            </g>
            <g id="path8-6" fill-rule="nonzero">
                <use fill="black" fill-opacity="1" filter="url(#filter-5)" xlink:href="#path-4"></use>
                <use fill="#FFFFFF" xlink:href="#path-4"></use>
            </g>
        </g>
    </g>
</svg>